<?xml version="1.0" encoding="UTF-8" standalone="no"?>
<!-- Created with Inkscape (http://www.inkscape.org/) -->

<svg
   xmlns:dc="http://purl.org/dc/elements/1.1/"
   xmlns:cc="http://creativecommons.org/ns#"
   xmlns:rdf="http://www.w3.org/1999/02/22-rdf-syntax-ns#"
   xmlns:svg="http://www.w3.org/2000/svg"
   xmlns="http://www.w3.org/2000/svg"
   xmlns:xlink="http://www.w3.org/1999/xlink"
   xmlns:sodipodi="http://sodipodi.sourceforge.net/DTD/sodipodi-0.dtd"
   xmlns:inkscape="http://www.inkscape.org/namespaces/inkscape"
   width="266.10236"
   height="133.22842"
   id="svg6012"
   version="1.1"
   inkscape:version="0.48.3.1 r9886"
   sodipodi:docname="X_Pinout.svg">
  <defs
     id="defs6014">
    <linearGradient
       inkscape:collect="always"
       xlink:href="#linearGradient5753"
       id="linearGradient5759"
       x1="348.34808"
       y1="955.67139"
       x2="401.85202"
       y2="955.67139"
       gradientUnits="userSpaceOnUse" />
    <linearGradient
       id="linearGradient5753">
      <stop
         style="stop-color:#ff8000;stop-opacity:1;"
         offset="0"
         id="stop5755" />
      <stop
         style="stop-color:#000000;stop-opacity:1;"
         offset="1"
         id="stop5757" />
    </linearGradient>
    <linearGradient
       inkscape:collect="always"
       xlink:href="#linearGradient5745"
       id="linearGradient5751"
       x1="348.34808"
       y1="902.52179"
       x2="401.85202"
       y2="902.52179"
       gradientUnits="userSpaceOnUse" />
    <linearGradient
       id="linearGradient5745">
      <stop
         style="stop-color:#ff0000;stop-opacity:1;"
         offset="0"
         id="stop5747" />
      <stop
         style="stop-color:#ffff00;stop-opacity:1;"
         offset="1"
         id="stop5749" />
    </linearGradient>
  </defs>
  <sodipodi:namedview
     id="base"
     pagecolor="#ffffff"
     bordercolor="#666666"
     borderopacity="1.0"
     inkscape:pageopacity="0.0"
     inkscape:pageshadow="2"
     inkscape:zoom="0.35"
     inkscape:cx="375"
     inkscape:cy="520"
     inkscape:document-units="mm"
     inkscape:current-layer="layer1"
     showgrid="false"
     units="mm"
     inkscape:window-width="1920"
     inkscape:window-height="1039"
     inkscape:window-x="0"
     inkscape:window-y="0"
     inkscape:window-maximized="1"
     fit-margin-top="0"
     fit-margin-left="0"
     fit-margin-right="0"
     fit-margin-bottom="0" />
  <metadata
     id="metadata6017">
    <rdf:RDF>
      <cc:Work
         rdf:about="">
        <dc:format>image/svg+xml</dc:format>
        <dc:type
           rdf:resource="http://purl.org/dc/dcmitype/StillImage" />
        <dc:title></dc:title>
      </cc:Work>
    </rdf:RDF>
  </metadata>
  <g
     inkscape:label="Layer 1"
     inkscape:groupmode="layer"
     id="layer1"
     transform="translate(-2.5089264e-6,-919.13375)">
    <g
       transform="translate(-348.34807,43.36402)"
       id="g5885">
      <path
         inkscape:connector-curvature="0"
         id="rect2985-5"
         d="m 348.52512,875.94684 265.39395,0 0,106.29945 -265.39395,0 z"
         style="fill:none;stroke:#000000;stroke-width:0.35409498;stroke-linejoin:round;stroke-miterlimit:4;stroke-opacity:1" />
      <path
         inkscape:connector-curvature="0"
         id="rect3755-09"
         d="m 348.52524,929.09656 53.1496,0 0,53.1496 -53.1496,0 z"
         style="fill:url(#linearGradient5759);fill-opacity:1;stroke:#000000;stroke-width:0.35433072;stroke-linejoin:round;stroke-miterlimit:4;stroke-opacity:1" />
      <path
         inkscape:connector-curvature="0"
         id="rect3755-5-2"
         d="m 348.52524,875.94696 53.1496,0 0,53.14961 -53.1496,0 z"
         style="fill:url(#linearGradient5751);fill-opacity:1;stroke:#000000;stroke-width:0.35433072;stroke-linejoin:round;stroke-miterlimit:4;stroke-opacity:1" />
      <path
         inkscape:connector-curvature="0"
         id="rect3755-9-5"
         d="m 401.67484,929.09656 53.1496,0 0,53.1496 -53.1496,0 z"
         style="fill:#ff8000;fill-opacity:1;stroke:#000000;stroke-width:0.35433072;stroke-linejoin:round;stroke-miterlimit:4;stroke-opacity:1" />
      <path
         inkscape:connector-curvature="0"
         id="rect3755-5-6-5"
         d="m 401.67484,875.94702 53.1496,0 0,53.14961 -53.1496,0 z"
         style="fill:#505050;fill-opacity:1;stroke:#000000;stroke-width:0.35433072;stroke-linejoin:round;stroke-miterlimit:4;stroke-opacity:1" />
      <path
         inkscape:connector-curvature="0"
         id="rect3755-2-3"
         d="m 454.82446,929.09656 53.14961,0 0,53.1496 -53.14961,0 z"
         style="fill:#ffff00;fill-opacity:1;stroke:#000000;stroke-width:0.35433072;stroke-linejoin:round;stroke-miterlimit:4;stroke-opacity:1" />
      <path
         inkscape:connector-curvature="0"
         id="rect3755-5-3-9"
         d="m 454.82446,875.9469 53.14961,0 0,53.1496 -53.14961,0 z"
         style="fill:#808080;fill-opacity:1;stroke:#000000;stroke-width:0.35433072;stroke-linejoin:round;stroke-miterlimit:4;stroke-opacity:1" />
      <path
         inkscape:connector-curvature="0"
         id="rect3755-3-1"
         d="m 507.97406,929.09656 53.1496,0 0,53.1496 -53.1496,0 z"
         style="fill:#ff0000;fill-opacity:1;stroke:#000000;stroke-width:0.35433072;stroke-linejoin:round;stroke-miterlimit:4;stroke-opacity:1" />
      <path
         inkscape:connector-curvature="0"
         id="rect3755-5-32-0"
         d="m 507.97406,875.94702 53.1496,0 0,53.14961 -53.1496,0 z"
         style="fill:#505050;fill-opacity:1;stroke:#000000;stroke-width:0.35433072;stroke-linejoin:round;stroke-miterlimit:4;stroke-opacity:1" />
      <path
         inkscape:connector-curvature="0"
         id="rect3755-0-8"
         d="m 561.12366,929.09656 53.1496,0 0,53.1496 -53.1496,0 z"
         style="fill:#000000;fill-opacity:1;stroke:#000000;stroke-width:0.35433072;stroke-linejoin:round;stroke-miterlimit:4;stroke-opacity:1" />
      <path
         inkscape:connector-curvature="0"
         id="rect3755-5-5-8"
         d="m 561.12366,875.9469 53.1496,0 0,53.1496 -53.1496,0 z"
         style="fill:#505050;fill-opacity:1;stroke:#000000;stroke-width:0.35433072;stroke-linejoin:round;stroke-miterlimit:4;stroke-opacity:1" />
      <path
         inkscape:connector-curvature="0"
         id="rect3823-9"
         d="m 454.82446,982.24622 53.14961,0 0,26.57478 -53.14961,0 z"
         style="fill:#000000;fill-opacity:1;stroke:#000000;stroke-width:0.35433072;stroke-linejoin:round;stroke-miterlimit:4;stroke-opacity:1" />
      <g
         id="text5761"
         style="font-size:11px;font-style:normal;font-weight:normal;line-height:125%;letter-spacing:0px;word-spacing:0px;fill:#000000;fill-opacity:1;stroke:none;font-family:Sans">
        <path
           inkscape:connector-curvature="0"
           id="path5859"
           d="m 357.87762,899.12457 0,1.14405 c -0.36524,-0.34017 -0.75554,-0.5944 -1.17089,-0.7627 -0.41179,-0.16829 -0.85043,-0.25243 -1.31592,-0.25244 -0.91667,1e-5 -1.61849,0.28109 -2.10547,0.84326 -0.48698,0.5586 -0.73047,1.36784 -0.73047,2.42774 0,1.05631 0.24349,1.86556 0.73047,2.42773 0.48698,0.55859 1.1888,0.83789 2.10547,0.83789 0.46549,0 0.90413,-0.0842 1.31592,-0.25244 0.41535,-0.16829 0.80565,-0.42253 1.17089,-0.7627 l 0,1.1333 c -0.37956,0.25782 -0.78239,0.45118 -1.20849,0.58008 -0.42253,0.12891 -0.87012,0.19336 -1.34278,0.19336 -1.21387,0 -2.16992,-0.3706 -2.86816,-1.11181 -0.69824,-0.74479 -1.04736,-1.75993 -1.04736,-3.04541 0,-1.28906 0.34912,-2.3042 1.04736,-3.04542 0.69824,-0.74478 1.65429,-1.11717 2.86816,-1.11718 0.47982,10e-6 0.93099,0.0645 1.35352,0.19336 0.4261,0.12533 0.82535,0.31511 1.19775,0.56933" />
        <path
           inkscape:connector-curvature="0"
           id="path5861"
           d="m 364.66669,903.27106 0,0.4834 -4.54395,0 c 0.043,0.68034 0.24707,1.19954 0.61231,1.55761 0.36881,0.3545 0.88085,0.53174 1.53613,0.53174 0.37955,0 0.74658,-0.0465 1.10107,-0.13965 0.35807,-0.0931 0.71256,-0.23274 1.06348,-0.41894 l 0,0.93457 c -0.3545,0.15039 -0.71794,0.26497 -1.09033,0.34375 -0.3724,0.0788 -0.75017,0.11816 -1.1333,0.11816 -0.95964,0 -1.72055,-0.2793 -2.28272,-0.83789 -0.55859,-0.55859 -0.83789,-1.31412 -0.83789,-2.2666 0,-0.9847 0.26497,-1.7653 0.79492,-2.3418 0.53353,-0.58007 1.25147,-0.87011 2.15381,-0.87011 0.80924,0 1.4484,0.26139 1.91748,0.78418 0.47265,0.51921 0.70898,1.2264 0.70899,2.12158 m -0.98828,-0.29004 c -0.007,-0.54069 -0.15935,-0.97217 -0.45655,-1.29444 -0.29362,-0.32226 -0.68392,-0.48339 -1.1709,-0.48339 -0.55143,0 -0.99365,0.15576 -1.32666,0.46728 -0.32942,0.31153 -0.5192,0.75017 -0.56933,1.31592 l 3.52344,-0.005" />
        <path
           inkscape:connector-curvature="0"
           id="path5863"
           d="m 371.28925,902.89508 0,3.63086 -0.98829,0 0,-3.59863 c 0,-0.56933 -0.111,-0.99544 -0.333,-1.27832 -0.22201,-0.28288 -0.55502,-0.42431 -0.99903,-0.42432 -0.53353,1e-5 -0.95426,0.17009 -1.2622,0.51025 -0.30795,0.34018 -0.46192,0.80388 -0.46192,1.39112 l 0,3.3999 -0.99365,0 0,-6.01563 0.99365,0 0,0.93458 c 0.23633,-0.36165 0.51383,-0.632 0.83252,-0.81104 0.32226,-0.17903 0.69287,-0.26855 1.11182,-0.26855 0.69107,0 1.21386,0.21485 1.56836,0.64453 0.35448,0.42611 0.53173,1.05453 0.53174,1.88525" />
        <path
           inkscape:connector-curvature="0"
           id="path5865"
           d="m 374.24872,898.80231 0,1.708 2.03564,0 0,0.76807 -2.03564,0 0,3.26563 c 0,0.49056 0.0662,0.80566 0.19873,0.94531 0.13606,0.13965 0.40999,0.20947 0.82178,0.20947 l 1.01513,0 0,0.82715 -1.01513,0 c -0.7627,0 -1.28907,-0.14144 -1.57911,-0.42432 -0.29004,-0.28645 -0.43506,-0.80566 -0.43505,-1.55761 l 0,-3.26563 -0.7251,0 0,-0.76807 0.7251,0 0,-1.708 0.99365,0" />
        <path
           inkscape:connector-curvature="0"
           id="path5867"
           d="m 382.73505,903.27106 0,0.4834 -4.54395,0 c 0.043,0.68034 0.24707,1.19954 0.61231,1.55761 0.36881,0.3545 0.88085,0.53174 1.53613,0.53174 0.37955,0 0.74658,-0.0465 1.10107,-0.13965 0.35807,-0.0931 0.71256,-0.23274 1.06348,-0.41894 l 0,0.93457 c -0.3545,0.15039 -0.71794,0.26497 -1.09033,0.34375 -0.3724,0.0788 -0.75017,0.11816 -1.1333,0.11816 -0.95964,0 -1.72055,-0.2793 -2.28272,-0.83789 -0.55859,-0.55859 -0.83789,-1.31412 -0.83789,-2.2666 0,-0.9847 0.26497,-1.7653 0.79492,-2.3418 0.53353,-0.58007 1.25147,-0.87011 2.15381,-0.87011 0.80924,0 1.4484,0.26139 1.91748,0.78418 0.47265,0.51921 0.70898,1.2264 0.70899,2.12158 m -0.98828,-0.29004 c -0.007,-0.54069 -0.15935,-0.97217 -0.45655,-1.29444 -0.29362,-0.32226 -0.68392,-0.48339 -1.1709,-0.48339 -0.55143,0 -0.99365,0.15576 -1.32666,0.46728 -0.32943,0.31153 -0.5192,0.75017 -0.56933,1.31592 l 3.52344,-0.005" />
        <path
           inkscape:connector-curvature="0"
           id="path5869"
           d="m 387.84296,901.43414 c -0.11101,-0.0644 -0.23276,-0.11099 -0.36524,-0.13965 -0.12891,-0.0322 -0.27214,-0.0483 -0.42969,-0.0483 -0.55859,1e-5 -0.98828,0.18263 -1.28906,0.54786 -0.2972,0.36165 -0.4458,0.88265 -0.4458,1.56298 l 0,3.16895 -0.99365,0 0,-6.01563 0.99365,0 0,0.93458 c 0.20768,-0.36523 0.47803,-0.63558 0.81104,-0.81104 0.333,-0.17903 0.73762,-0.26855 1.21386,-0.26855 0.068,0 0.14323,0.005 0.22559,0.0161 0.0823,0.007 0.17366,0.0197 0.27393,0.0376 l 0.005,1.01513" />
        <path
           inkscape:connector-curvature="0"
           id="path5871"
           d="m 395.11542,899.57574 -1.47168,3.99073 2.94873,0 -1.47705,-3.99073 m -0.61231,-1.06884 1.22998,0 3.05616,8.01904 -1.12793,0 -0.73047,-2.05713 -3.61475,0 -0.73047,2.05713 -1.14404,0 3.06152,-8.01904" />
      </g>
      <g
         id="text5765"
         style="font-size:11px;font-style:normal;font-weight:normal;line-height:125%;letter-spacing:0px;word-spacing:0px;fill:#000000;fill-opacity:1;stroke:none;font-family:Sans">
        <path
           inkscape:connector-curvature="0"
           id="path5854"
           d="m 421.13293,898.50696 1.46094,0 3.55567,6.70849 0,-6.70849 1.05273,0 0,8.01904 -1.46094,0 -3.55566,-6.7085 0,6.7085 -1.05274,0 0,-8.01904" />
        <path
           inkscape:connector-curvature="0"
           id="path5856"
           d="m 435.36633,899.12463 0,1.14405 c -0.36524,-0.34017 -0.75554,-0.5944 -1.1709,-0.7627 -0.41178,-0.16829 -0.85042,-0.25243 -1.31591,-0.25244 -0.91667,10e-6 -1.6185,0.28109 -2.10547,0.84326 -0.48698,0.5586 -0.73047,1.36785 -0.73047,2.42774 0,1.05631 0.24349,1.86556 0.73047,2.42773 0.48697,0.5586 1.1888,0.83789 2.10547,0.83789 0.46549,0 0.90413,-0.0842 1.31591,-0.25244 0.41536,-0.16829 0.80566,-0.42252 1.1709,-0.7627 l 0,1.13331 c -0.37956,0.25781 -0.78239,0.45117 -1.20849,0.58007 -0.42253,0.12891 -0.87013,0.19336 -1.34278,0.19336 -1.21387,0 -2.16992,-0.3706 -2.86816,-1.11181 -0.69824,-0.74479 -1.04736,-1.75993 -1.04736,-3.04541 0,-1.28906 0.34912,-2.3042 1.04736,-3.04541 0.69824,-0.74479 1.65429,-1.11718 2.86816,-1.11719 0.47982,10e-6 0.93099,0.0645 1.35352,0.19336 0.4261,0.12533 0.82535,0.31511 1.19775,0.56933" />
      </g>
      <g
         id="text5769"
         style="font-size:11px;font-style:normal;font-weight:normal;line-height:125%;letter-spacing:0px;word-spacing:0px;fill:#000000;fill-opacity:1;stroke:none;font-family:Sans">
        <path
           inkscape:connector-curvature="0"
           id="path5847"
           d="m 472.12338,897.36816 1.08496,0 0,3.38916 3.59864,-3.38916 1.39648,0 -3.97998,3.73829 4.26465,4.28076 -1.42871,0 -3.85108,-3.86182 0,3.86182 -1.08496,0 0,-8.01905" />
        <path
           inkscape:connector-curvature="0"
           id="path5849"
           d="m 483.90756,902.13232 0,0.4834 -4.54394,0 c 0.043,0.68034 0.24707,1.19955 0.6123,1.55762 0.36881,0.35449 0.88086,0.53174 1.53613,0.53174 0.37956,0 0.74658,-0.0465 1.10108,-0.13965 0.35807,-0.0931 0.71256,-0.23275 1.06348,-0.41895 l 0,0.93457 c -0.3545,0.1504 -0.71795,0.26498 -1.09034,0.34375 -0.3724,0.0788 -0.75016,0.11817 -1.1333,0.11817 -0.95964,0 -1.72054,-0.2793 -2.28271,-0.83789 -0.5586,-0.55859 -0.83789,-1.31413 -0.83789,-2.2666 0,-0.9847 0.26497,-1.7653 0.79492,-2.3418 0.53353,-0.58007 1.25146,-0.87011 2.15381,-0.87012 0.80924,1e-5 1.4484,0.2614 1.91748,0.78418 0.47265,0.51921 0.70898,1.22641 0.70898,2.12158 m -0.98828,-0.29003 c -0.007,-0.54069 -0.15935,-0.97217 -0.45654,-1.29444 -0.29363,-0.32226 -0.68393,-0.48339 -1.1709,-0.4834 -0.55144,1e-5 -0.99366,0.15577 -1.32666,0.46729 -0.32943,0.31153 -0.51921,0.75017 -0.56934,1.31592 l 3.52344,-0.005" />
        <path
           inkscape:connector-curvature="0"
           id="path5851"
           d="m 488.03256,905.9458 c -0.2793,0.71615 -0.55143,1.18343 -0.8164,1.40186 -0.26498,0.21842 -0.61947,0.32763 -1.06348,0.32763 l -0.78955,0 0,-0.82715 0.58008,0 c 0.27213,0 0.48339,-0.0644 0.63379,-0.19335 0.15038,-0.12891 0.31689,-0.43327 0.49951,-0.91309 l 0.17724,-0.45117 -2.4331,-5.91895 1.04736,0 1.87988,4.70508 1.87989,-4.70508 1.04736,0 -2.64258,6.57422" />
      </g>
      <g
         id="text5773"
         style="font-size:11px;font-style:normal;font-weight:normal;line-height:125%;letter-spacing:0px;word-spacing:0px;fill:#000000;fill-opacity:1;stroke:none;font-family:Sans">
        <path
           inkscape:connector-curvature="0"
           id="path5842"
           d="m 527.43219,898.50696 1.46094,0 3.55566,6.70849 0,-6.70849 1.05274,0 0,8.01904 -1.46094,0 -3.55567,-6.7085 0,6.7085 -1.05273,0 0,-8.01904" />
        <path
           inkscape:connector-curvature="0"
           id="path5844"
           d="m 541.66559,899.12463 0,1.14405 c -0.36524,-0.34017 -0.75554,-0.5944 -1.1709,-0.7627 -0.41179,-0.16829 -0.85043,-0.25243 -1.31592,-0.25244 -0.91667,10e-6 -1.61849,0.28109 -2.10547,0.84326 -0.48698,0.5586 -0.73047,1.36785 -0.73047,2.42774 0,1.05631 0.24349,1.86556 0.73047,2.42773 0.48698,0.5586 1.1888,0.83789 2.10547,0.83789 0.46549,0 0.90413,-0.0842 1.31592,-0.25244 0.41536,-0.16829 0.80566,-0.42252 1.1709,-0.7627 l 0,1.13331 c -0.37957,0.25781 -0.7824,0.45117 -1.2085,0.58007 -0.42253,0.12891 -0.87012,0.19336 -1.34277,0.19336 -1.21387,0 -2.16993,-0.3706 -2.86817,-1.11181 -0.69824,-0.74479 -1.04736,-1.75993 -1.04736,-3.04541 0,-1.28906 0.34912,-2.3042 1.04736,-3.04541 0.69824,-0.74479 1.6543,-1.11718 2.86817,-1.11719 0.47981,10e-6 0.93098,0.0645 1.35351,0.19336 0.4261,0.12533 0.82536,0.31511 1.19776,0.56933" />
      </g>
      <g
         id="text5777"
         style="font-size:11px;font-style:normal;font-weight:normal;line-height:125%;letter-spacing:0px;word-spacing:0px;fill:#000000;fill-opacity:1;stroke:none;font-family:Sans">
        <path
           inkscape:connector-curvature="0"
           id="path5837"
           d="m 580.58179,898.50684 1.46093,0 3.55567,6.70849 0,-6.70849 1.05273,0 0,8.01904 -1.46093,0 -3.55567,-6.7085 0,6.7085 -1.05273,0 0,-8.01904" />
        <path
           inkscape:connector-curvature="0"
           id="path5839"
           d="m 594.81519,899.12451 0,1.14404 c -0.36525,-0.34016 -0.75554,-0.59439 -1.1709,-0.76269 -0.41179,-0.16829 -0.85043,-0.25243 -1.31592,-0.25244 -0.91667,10e-6 -1.61849,0.28109 -2.10547,0.84326 -0.48698,0.5586 -0.73047,1.36784 -0.73047,2.42773 0,1.05632 0.24349,1.86557 0.73047,2.42774 0.48698,0.55859 1.1888,0.83789 2.10547,0.83789 0.46549,0 0.90413,-0.0842 1.31592,-0.25244 0.41536,-0.1683 0.80565,-0.42253 1.1709,-0.7627 l 0,1.1333 c -0.37957,0.25782 -0.7824,0.45118 -1.2085,0.58008 -0.42253,0.12891 -0.87012,0.19336 -1.34277,0.19336 -1.21387,0 -2.16993,-0.3706 -2.86817,-1.11182 -0.69824,-0.74479 -1.04736,-1.75992 -1.04736,-3.04541 0,-1.28905 0.34912,-2.30419 1.04736,-3.04541 0.69824,-0.74478 1.6543,-1.11718 2.86817,-1.11718 0.47981,0 0.93098,0.0645 1.35351,0.19336 0.4261,0.12533 0.82535,0.31511 1.19776,0.56933" />
      </g>
      <g
         id="text5781"
         style="font-size:11px;font-style:normal;font-weight:normal;line-height:125%;letter-spacing:0px;word-spacing:0px;fill:#ffffff;fill-opacity:1;stroke:none;font-family:Sans">
        <path
           inkscape:connector-curvature="0"
           id="path5822"
           d="m 358.21063,952.27417 0,1.14404 c -0.36524,-0.34016 -0.75554,-0.59439 -1.1709,-0.76269 -0.41179,-0.16829 -0.85042,-0.25244 -1.31591,-0.25244 -0.91667,0 -1.6185,0.28109 -2.10547,0.84326 -0.48698,0.5586 -0.73047,1.36784 -0.73047,2.42773 0,1.05632 0.24349,1.86556 0.73047,2.42774 0.48697,0.55859 1.1888,0.83789 2.10547,0.83789 0.46549,0 0.90412,-0.0842 1.31591,-0.25244 0.41536,-0.1683 0.80566,-0.42253 1.1709,-0.7627 l 0,1.1333 c -0.37956,0.25781 -0.78239,0.45117 -1.20849,0.58008 -0.42254,0.12891 -0.87013,0.19336 -1.34278,0.19336 -1.21387,0 -2.16992,-0.37061 -2.86816,-1.11182 -0.69824,-0.74479 -1.04737,-1.75992 -1.04736,-3.04541 -10e-6,-1.28905 0.34912,-2.30419 1.04736,-3.04541 0.69824,-0.74478 1.65429,-1.11718 2.86816,-1.11719 0.47982,10e-6 0.93099,0.0645 1.35352,0.19336 0.4261,0.12534 0.82535,0.31512 1.19775,0.56934" />
        <path
           inkscape:connector-curvature="0"
           id="path5824"
           d="m 364.99969,956.42065 0,0.4834 -4.54394,0 c 0.043,0.68034 0.24707,1.19955 0.6123,1.55762 0.36882,0.35449 0.88086,0.53174 1.53614,0.53174 0.37955,0 0.74657,-0.0466 1.10107,-0.13965 0.35807,-0.0931 0.71256,-0.23275 1.06348,-0.41895 l 0,0.93457 c -0.3545,0.1504 -0.71794,0.26498 -1.09033,0.34375 -0.3724,0.0788 -0.75017,0.11817 -1.13331,0.11817 -0.95963,0 -1.72054,-0.2793 -2.28271,-0.83789 -0.55859,-0.55859 -0.83789,-1.31413 -0.83789,-2.2666 0,-0.9847 0.26497,-1.7653 0.79492,-2.3418 0.53353,-0.58007 1.25146,-0.87011 2.15381,-0.87012 0.80924,10e-6 1.4484,0.2614 1.91748,0.78418 0.47265,0.51921 0.70898,1.22641 0.70898,2.12158 m -0.98828,-0.29003 c -0.007,-0.54069 -0.15934,-0.97217 -0.45654,-1.29444 -0.29362,-0.32226 -0.68392,-0.48339 -1.1709,-0.4834 -0.55143,10e-6 -0.99365,0.15577 -1.32666,0.46729 -0.32943,0.31153 -0.51921,0.75017 -0.56933,1.31592 l 3.52343,-0.005" />
        <path
           inkscape:connector-curvature="0"
           id="path5826"
           d="m 371.62225,956.04468 0,3.63086 -0.98828,0 0,-3.59864 c 0,-0.56933 -0.11101,-0.99543 -0.33301,-1.27832 -0.22201,-0.28287 -0.55501,-0.42431 -0.99902,-0.42431 -0.53353,0 -0.95427,0.17009 -1.26221,0.51025 -0.30794,0.34018 -0.46191,0.80388 -0.46191,1.39111 l 0,3.39991 -0.99365,0 0,-6.01563 0.99365,0 0,0.93457 c 0.23633,-0.36165 0.51383,-0.63199 0.83252,-0.81103 0.32226,-0.17903 0.69287,-0.26855 1.11182,-0.26856 0.69107,10e-6 1.21386,0.21485 1.56836,0.64453 0.35448,0.42612 0.53173,1.05453 0.53173,1.88526" />
        <path
           inkscape:connector-curvature="0"
           id="path5828"
           d="m 374.58173,951.9519 0,1.70801 2.03564,0 0,0.76807 -2.03564,0 0,3.26562 c -10e-6,0.49056 0.0662,0.80567 0.19873,0.94532 0.13606,0.13965 0.40999,0.20947 0.82177,0.20947 l 1.01514,0 0,0.82715 -1.01514,0 c -0.76269,0 -1.28906,-0.14144 -1.5791,-0.42432 -0.29004,-0.28646 -0.43506,-0.80566 -0.43506,-1.55762 l 0,-3.26562 -0.72509,0 0,-0.76807 0.72509,0 0,-1.70801 0.99366,0" />
        <path
           inkscape:connector-curvature="0"
           id="path5830"
           d="m 383.06805,956.42065 0,0.4834 -4.54394,0 c 0.043,0.68034 0.24707,1.19955 0.6123,1.55762 0.36882,0.35449 0.88086,0.53174 1.53614,0.53174 0.37955,0 0.74657,-0.0466 1.10107,-0.13965 0.35807,-0.0931 0.71256,-0.23275 1.06348,-0.41895 l 0,0.93457 c -0.3545,0.1504 -0.71794,0.26498 -1.09033,0.34375 -0.37241,0.0788 -0.75017,0.11817 -1.13331,0.11817 -0.95963,0 -1.72054,-0.2793 -2.28271,-0.83789 -0.5586,-0.55859 -0.83789,-1.31413 -0.83789,-2.2666 0,-0.9847 0.26497,-1.7653 0.79492,-2.3418 0.53353,-0.58007 1.25146,-0.87011 2.15381,-0.87012 0.80924,10e-6 1.4484,0.2614 1.91748,0.78418 0.47265,0.51921 0.70898,1.22641 0.70898,2.12158 m -0.98828,-0.29003 c -0.007,-0.54069 -0.15934,-0.97217 -0.45654,-1.29444 -0.29362,-0.32226 -0.68392,-0.48339 -1.1709,-0.4834 -0.55143,10e-6 -0.99365,0.15577 -1.32666,0.46729 -0.32943,0.31153 -0.51921,0.75017 -0.56933,1.31592 l 3.52343,-0.005" />
        <path
           inkscape:connector-curvature="0"
           id="path5832"
           d="m 388.17596,954.58374 c -0.111,-0.0645 -0.23275,-0.111 -0.36523,-0.13965 -0.12891,-0.0322 -0.27214,-0.0483 -0.42969,-0.0483 -0.55859,10e-6 -0.98828,0.18262 -1.28906,0.54785 -0.2972,0.36166 -0.4458,0.88266 -0.4458,1.56299 l 0,3.16895 -0.99365,0 0,-6.01563 0.99365,0 0,0.93457 c 0.20768,-0.36523 0.47802,-0.63557 0.81103,-0.81103 0.33301,-0.17903 0.73763,-0.26855 1.21387,-0.26856 0.068,10e-6 0.14323,0.005 0.22559,0.0161 0.0824,0.007 0.17366,0.0197 0.27392,0.0376 l 0.005,1.01514" />
        <path
           inkscape:connector-curvature="0"
           id="path5834"
           d="m 393.85321,955.84595 0,2.93799 1.74023,0 c 0.58366,0 1.01514,-0.11996 1.29444,-0.35987 0.28287,-0.24349 0.42431,-0.61409 0.42431,-1.11181 0,-0.5013 -0.14144,-0.87012 -0.42431,-1.10645 -0.2793,-0.2399 -0.71078,-0.35986 -1.29444,-0.35986 l -1.74023,0 m 0,-3.29785 0,2.41699 1.60596,0 c 0.52994,0 0.92382,-0.0985 1.18164,-0.29541 0.26139,-0.20052 0.39208,-0.50488 0.39209,-0.91309 -10e-6,-0.40461 -0.1307,-0.70719 -0.39209,-0.90771 -0.25782,-0.20052 -0.6517,-0.30078 -1.18164,-0.30078 l -1.60596,0 m -1.08496,-0.89161 2.77148,0 c 0.82715,1e-5 1.46452,0.17189 1.91211,0.51563 0.44759,0.34376 0.67138,0.83253 0.67139,1.46631 -10e-6,0.49056 -0.11459,0.88086 -0.34375,1.1709 -0.22917,0.29004 -0.56576,0.47087 -1.00977,0.54248 0.53353,0.11458 0.9471,0.35449 1.24073,0.71972 0.29719,0.36166 0.44579,0.81462 0.4458,1.35889 -10e-6,0.71615 -0.2435,1.26937 -0.73047,1.65967 -0.48699,0.3903 -1.17986,0.58545 -2.07861,0.58545 l -2.87891,0 0,-8.01905" />
      </g>
      <g
         id="text5785"
         style="font-size:11px;font-style:normal;font-weight:normal;line-height:125%;letter-spacing:0px;word-spacing:0px;fill:#000000;fill-opacity:1;stroke:none;font-family:Sans">
        <path
           inkscape:connector-curvature="0"
           id="path5817"
           d="m 423.11218,955.85132 0,2.93799 1.74024,0 c 0.58365,0 1.01513,-0.11996 1.29443,-0.35987 0.28287,-0.24348 0.42431,-0.61409 0.42432,-1.11181 -10e-6,-0.5013 -0.14145,-0.87012 -0.42432,-1.10645 -0.2793,-0.2399 -0.71078,-0.35986 -1.29443,-0.35986 l -1.74024,0 m 0,-3.29785 0,2.41699 1.60596,0 c 0.52994,0 0.92382,-0.0985 1.18164,-0.29541 0.26139,-0.20052 0.39208,-0.50488 0.39209,-0.91309 -1e-5,-0.40461 -0.1307,-0.70718 -0.39209,-0.90771 -0.25782,-0.20052 -0.6517,-0.30078 -1.18164,-0.30078 l -1.60596,0 m -1.08496,-0.8916 2.77149,0 c 0.82714,0 1.46451,0.17188 1.91211,0.51562 0.44758,0.34376 0.67138,0.83253 0.67138,1.46631 0,0.49056 -0.11459,0.88086 -0.34375,1.1709 -0.22917,0.29004 -0.56576,0.47087 -1.00976,0.54248 0.53352,0.11459 0.94709,0.35449 1.24072,0.71972 0.29719,0.36166 0.44579,0.81462 0.4458,1.35889 -1e-5,0.71615 -0.2435,1.26937 -0.73047,1.65967 -0.48698,0.3903 -1.17985,0.58545 -2.07861,0.58545 l -2.87891,0 0,-8.01904" />
        <path
           inkscape:connector-curvature="0"
           id="path5819"
           d="m 429.85291,958.76782 1.77246,0 0,-6.11767 -1.92823,0.38672 0,-0.98829 1.91748,-0.38671 1.08496,0 0,7.10595 1.77247,0 0,0.91309 -4.61914,0 0,-0.91309" />
      </g>
      <g
         id="text5789"
         style="font-size:11px;font-style:normal;font-weight:normal;line-height:125%;letter-spacing:0px;word-spacing:0px;fill:#000000;fill-opacity:1;stroke:none;font-family:Sans">
        <path
           inkscape:connector-curvature="0"
           id="path5812"
           d="m 478.36459,952.73071 -1.47168,3.99073 2.94873,0 -1.47705,-3.99073 m -0.6123,-1.06884 1.22998,0 3.05615,8.01904 -1.12793,0 -0.73047,-2.05713 -3.61474,0 -0.73047,2.05713 -1.14404,0 3.06152,-8.01904" />
        <path
           inkscape:connector-curvature="0"
           id="path5814"
           d="m 483.48862,958.76782 1.77246,0 0,-6.11767 -1.92822,0.38672 0,-0.98829 1.91748,-0.38671 1.08496,0 0,7.10595 1.77246,0 0,0.91309 -4.61914,0 0,-0.91309" />
      </g>
      <g
         id="text5793"
         style="font-size:11px;font-style:normal;font-weight:normal;line-height:125%;letter-spacing:0px;word-spacing:0px;fill:#000000;fill-opacity:1;stroke:none;font-family:Sans">
        <path
           inkscape:connector-curvature="0"
           id="path5807"
           d="m 531.55719,952.80322 -1.47168,3.99073 2.94873,0 -1.47705,-3.99073 m -0.6123,-1.06885 1.22998,0 3.05615,8.01905 -1.12793,0 -0.73047,-2.05713 -3.61475,0 -0.73047,2.05713 -1.14404,0 3.06153,-8.01905" />
        <path
           inkscape:connector-curvature="0"
           id="path5809"
           d="m 537.4278,958.84033 3.78662,0 0,0.91309 -5.0918,0 0,-0.91309 c 0.41178,-0.4261 0.97217,-0.99723 1.68115,-1.71338 0.71256,-0.71972 1.16015,-1.18342 1.34278,-1.39111 0.34732,-0.3903 0.58902,-0.71972 0.72509,-0.98828 0.13965,-0.27213 0.20947,-0.5389 0.20948,-0.80029 -1e-5,-0.4261 -0.1504,-0.77344 -0.45118,-1.042 -0.2972,-0.26854 -0.68571,-0.40282 -1.16552,-0.40283 -0.34018,10e-6 -0.70004,0.0591 -1.07959,0.17725 -0.37598,0.11817 -0.77881,0.2972 -1.2085,0.53711 l 0,-1.09571 c 0.43685,-0.17544 0.84505,-0.30793 1.22461,-0.39746 0.37955,-0.0895 0.72689,-0.13427 1.04199,-0.13427 0.83073,0 1.49316,0.20769 1.98731,0.62304 0.49413,0.41537 0.7412,0.97039 0.74121,1.66504 -1e-5,0.32943 -0.0627,0.64275 -0.18799,0.93994 -0.12175,0.29363 -0.34555,0.64096 -0.67139,1.04199 -0.0895,0.10385 -0.37419,0.40463 -0.854,0.90235 -0.47982,0.49414 -1.15658,1.18701 -2.03027,2.07861" />
      </g>
      <g
         id="text5797"
         style="font-size:11px;font-style:normal;font-weight:normal;line-height:125%;letter-spacing:0px;word-spacing:0px;fill:#ffffff;fill-opacity:1;stroke:none;font-family:Sans">
        <path
           inkscape:connector-curvature="0"
           id="path5802"
           d="m 582.604,955.92383 0,2.93799 1.74024,0 c 0.58365,0 1.01513,-0.11996 1.29443,-0.35987 0.28287,-0.24348 0.42431,-0.61409 0.42432,-1.11181 -10e-6,-0.5013 -0.14145,-0.87012 -0.42432,-1.10645 -0.2793,-0.2399 -0.71078,-0.35986 -1.29443,-0.35986 l -1.74024,0 m 0,-3.29785 0,2.41699 1.60596,0 c 0.52994,0 0.92382,-0.0985 1.18164,-0.29541 0.26139,-0.20052 0.39209,-0.50488 0.39209,-0.91309 0,-0.40461 -0.1307,-0.70718 -0.39209,-0.90771 -0.25782,-0.20052 -0.6517,-0.30078 -1.18164,-0.30078 l -1.60596,0 m -1.08496,-0.89161 2.77149,0 c 0.82714,10e-6 1.46451,0.17189 1.91211,0.51563 0.44758,0.34376 0.67138,0.83253 0.67138,1.46631 0,0.49056 -0.11459,0.88086 -0.34375,1.1709 -0.22917,0.29004 -0.56576,0.47087 -1.00976,0.54248 0.53352,0.11459 0.94709,0.35449 1.24072,0.71972 0.29719,0.36166 0.44579,0.81462 0.4458,1.35889 -10e-6,0.71615 -0.24349,1.26937 -0.73047,1.65967 -0.48698,0.3903 -1.17985,0.58545 -2.07861,0.58545 l -2.87891,0 0,-8.01905" />
        <path
           inkscape:connector-curvature="0"
           id="path5804"
           d="m 590.09131,958.84033 3.78662,0 0,0.91309 -5.0918,0 0,-0.91309 c 0.41179,-0.4261 0.97217,-0.99723 1.68116,-1.71338 0.71256,-0.71972 1.16015,-1.18342 1.34277,-1.39111 0.34733,-0.3903 0.58902,-0.71972 0.7251,-0.98828 0.13964,-0.27213 0.20946,-0.5389 0.20947,-0.80029 -10e-6,-0.4261 -0.1504,-0.77344 -0.45117,-1.042 -0.29721,-0.26854 -0.68572,-0.40282 -1.16553,-0.40283 -0.34017,10e-6 -0.70004,0.0591 -1.07959,0.17725 -0.37598,0.11817 -0.77881,0.2972 -1.2085,0.53711 l 0,-1.09571 c 0.43685,-0.17544 0.84505,-0.30793 1.22461,-0.39746 0.37956,-0.0895 0.72689,-0.13427 1.042,-0.13427 0.83072,0 1.49315,0.20769 1.9873,0.62304 0.49414,0.41537 0.74121,0.97039 0.74121,1.66504 0,0.32943 -0.0627,0.64275 -0.18799,0.93994 -0.12175,0.29363 -0.34554,0.64096 -0.67138,1.04199 -0.0895,0.10385 -0.37419,0.40463 -0.85401,0.90235 -0.47982,0.49414 -1.15658,1.18701 -2.03027,2.07861" />
      </g>
    </g>
  </g>
</svg>
