<?xml version="1.0" encoding="UTF-8" standalone="no"?>
<!-- Created with Inkscape (http://www.inkscape.org/) -->

<svg
   xmlns:dc="http://purl.org/dc/elements/1.1/"
   xmlns:cc="http://creativecommons.org/ns#"
   xmlns:rdf="http://www.w3.org/1999/02/22-rdf-syntax-ns#"
   xmlns:svg="http://www.w3.org/2000/svg"
   xmlns="http://www.w3.org/2000/svg"
   xmlns:sodipodi="http://sodipodi.sourceforge.net/DTD/sodipodi-0.dtd"
   xmlns:inkscape="http://www.inkscape.org/namespaces/inkscape"
   width="266.10236"
   height="133.22842"
   id="svg2"
   version="1.1"
   inkscape:version="0.48.3.1 r9886"
   sodipodi:docname="yz_Pinout.svg (Case Conflict 3)">
  <defs
     id="defs4">
    <linearGradient
       id="linearGradient5753">
      <stop
         style="stop-color:#ff8000;stop-opacity:1;"
         offset="0"
         id="stop5755" />
      <stop
         style="stop-color:#000000;stop-opacity:1;"
         offset="1"
         id="stop5757" />
    </linearGradient>
    <linearGradient
       id="linearGradient5745">
      <stop
         style="stop-color:#ff0000;stop-opacity:1;"
         offset="0"
         id="stop5747" />
      <stop
         style="stop-color:#ffff00;stop-opacity:1;"
         offset="1"
         id="stop5749" />
    </linearGradient>
    <linearGradient
       id="linearGradient4299">
      <stop
         style="stop-color:#ff0000;stop-opacity:1;"
         offset="0"
         id="stop4301" />
      <stop
         style="stop-color:#ffff00;stop-opacity:1;"
         offset="1"
         id="stop4303" />
    </linearGradient>
  </defs>
  <sodipodi:namedview
     id="base"
     pagecolor="#ffffff"
     bordercolor="#666666"
     borderopacity="1.0"
     inkscape:pageopacity="0.0"
     inkscape:pageshadow="2"
     inkscape:zoom="2.5550517"
     inkscape:cx="243.04385"
     inkscape:cy="20.700116"
     inkscape:document-units="mm"
     inkscape:current-layer="layer1"
     showgrid="false"
     units="mm"
     inkscape:window-width="1920"
     inkscape:window-height="1039"
     inkscape:window-x="0"
     inkscape:window-y="0"
     inkscape:window-maximized="1"
     fit-margin-top="0"
     fit-margin-left="0"
     fit-margin-right="0"
     fit-margin-bottom="0" />
  <metadata
     id="metadata7">
    <rdf:RDF>
      <cc:Work
         rdf:about="">
        <dc:format>image/svg+xml</dc:format>
        <dc:type
           rdf:resource="http://purl.org/dc/dcmitype/StillImage" />
        <dc:title></dc:title>
      </cc:Work>
    </rdf:RDF>
  </metadata>
  <g
     inkscape:label="Layer 1"
     inkscape:groupmode="layer"
     id="layer1"
     transform="translate(0,-919.13375)">
    <g
       id="g6437">
      <path
         inkscape:connector-curvature="0"
         id="rect2985"
         d="m 0.17704749,919.31086 265.39395251,0 0,106.29944 -265.39395251,0 z"
         style="fill:none;stroke:#000000;stroke-width:0.35409498;stroke-linejoin:round;stroke-miterlimit:4;stroke-opacity:1" />
      <path
         inkscape:connector-curvature="0"
         id="rect3755"
         d="m 0.17716536,972.46058 53.14960464,0 0,53.14962 -53.14960464,0 z"
         style="fill:#ffffff;stroke:#000000;stroke-width:0.35433071999999999;stroke-linejoin:round;stroke-miterlimit:4;stroke-opacity:1;fill-opacity:1" />
      <path
         inkscape:connector-curvature="0"
         id="rect3755-5"
         d="m 0.17716536,919.31098 53.14960464,0 0,53.1496 -53.14960464,0 z"
         style="fill:#ffff00;fill-opacity:1;stroke:#000000;stroke-width:0.35433072;stroke-linejoin:round;stroke-miterlimit:4;stroke-opacity:1" />
      <path
         inkscape:connector-curvature="0"
         id="rect3755-9"
         d="m 53.326771,972.46058 53.149609,0 0,53.14962 -53.149609,0 z"
         style="fill:#505050;fill-opacity:1;stroke:#000000;stroke-width:0.35433072;stroke-linejoin:round;stroke-miterlimit:4;stroke-opacity:1" />
      <path
         inkscape:connector-curvature="0"
         id="rect3755-5-6"
         d="m 53.326771,919.31104 53.149609,0 0,53.1496 -53.149609,0 z"
         style="fill:#00ff00;fill-opacity:1;stroke:#000000;stroke-width:0.35433072;stroke-linejoin:round;stroke-miterlimit:4;stroke-opacity:1" />
      <path
         inkscape:connector-curvature="0"
         id="rect3755-2"
         d="m 106.47638,972.46058 53.1496,0 0,53.14962 -53.1496,0 z"
         style="fill:#505050;fill-opacity:1;stroke:#000000;stroke-width:0.35433072;stroke-linejoin:round;stroke-miterlimit:4;stroke-opacity:1" />
      <path
         inkscape:connector-curvature="0"
         id="rect3755-5-3"
         d="m 106.47638,919.31092 53.1496,0 0,53.1496 -53.1496,0 z"
         style="fill:#0000ff;fill-opacity:1;stroke:#000000;stroke-width:0.35433072;stroke-linejoin:round;stroke-miterlimit:4;stroke-opacity:1" />
      <path
         inkscape:connector-curvature="0"
         id="rect3755-3"
         d="m 159.62599,972.46058 53.14961,0 0,53.14962 -53.14961,0 z"
         style="fill:#505050;fill-opacity:1;stroke:#000000;stroke-width:0.35433072;stroke-linejoin:round;stroke-miterlimit:4;stroke-opacity:1" />
      <path
         inkscape:connector-curvature="0"
         id="rect3755-5-32"
         d="m 159.62599,919.31104 53.14961,0 0,53.1496 -53.14961,0 z"
         style="fill:#ff0000;fill-opacity:1;stroke:#000000;stroke-width:0.35433072;stroke-linejoin:round;stroke-miterlimit:4;stroke-opacity:1" />
      <path
         inkscape:connector-curvature="0"
         id="rect3755-0"
         d="m 212.77559,972.46058 53.1496,0 0,53.14962 -53.1496,0 z"
         style="fill:#808080;fill-opacity:1;stroke:#000000;stroke-width:0.35433072;stroke-linejoin:round;stroke-miterlimit:4;stroke-opacity:1" />
      <path
         inkscape:connector-curvature="0"
         id="rect3755-5-5"
         d="m 212.77559,919.31092 53.1496,0 0,53.1496 -53.1496,0 z"
         style="fill:#000000;fill-opacity:1;stroke:#000000;stroke-width:0.35433072;stroke-linejoin:round;stroke-miterlimit:4;stroke-opacity:1" />
      <path
         inkscape:connector-curvature="0"
         id="rect3823"
         d="m 106.47638,1025.6102 53.1496,0 0,26.5748 -53.1496,0 z"
         style="fill:#000000;fill-opacity:1;stroke:#000000;stroke-width:0.35433072;stroke-linejoin:round;stroke-miterlimit:4;stroke-opacity:1" />
      <g
         transform="translate(0,8.8582196)"
         id="text3876"
         style="font-size:12px;font-style:normal;font-weight:normal;line-height:125%;letter-spacing:0px;word-spacing:0px;fill:#000000;fill-opacity:1;stroke:none;font-family:Sans">
        <path
           inkscape:connector-curvature="0"
           id="path3993"
           style="font-size:11px"
           d="m 9.8625634,933.63037 0,1.14404 c -0.3652411,-0.34016 -0.7555402,-0.59439 -1.1708985,-0.76269 -0.4117893,-0.16829 -0.8504282,-0.25244 -1.3159179,-0.25244 -0.9166704,0 -1.6184926,0.28109 -2.1054688,0.84326 -0.4869812,0.5586 -0.7304705,1.36784 -0.7304687,2.42773 -1.8e-6,1.05632 0.2434875,1.86557 0.7304687,2.42774 0.4869762,0.55859 1.1887984,0.83789 2.1054688,0.83789 0.4654897,0 0.9041286,-0.0841 1.3159179,-0.25244 0.4153583,-0.1683 0.8056574,-0.42253 1.1708985,-0.7627 l 0,1.1333 c -0.379564,0.25782 -0.7823957,0.45117 -1.2084961,0.58008 -0.4225315,0.12891 -0.8701222,0.19336 -1.3427735,0.19336 -1.2138705,0 -2.1699242,-0.37061 -2.868164,-1.11182 -0.6982432,-0.74479 -1.0473639,-1.75992 -1.0473633,-3.04541 -6e-7,-1.28905 0.3491201,-2.30419 1.0473633,-3.04541 0.6982398,-0.74478 1.6542935,-1.11718 2.868164,-1.11718 0.4798127,0 0.9309842,0.0645 1.3535157,0.19336 0.4261004,0.12533 0.8253513,0.31511 1.1977539,0.56933" />
        <path
           inkscape:connector-curvature="0"
           id="path3995"
           style="font-size:11px"
           d="m 16.651626,937.77686 0,0.48339 -4.543945,0 c 0.04297,0.68034 0.247068,1.19955 0.612304,1.55762 0.368813,0.35449 0.880856,0.53174 1.536133,0.53174 0.379553,0 0.746578,-0.0466 1.101074,-0.13965 0.358068,-0.0931 0.71256,-0.23275 1.063477,-0.41894 l 0,0.93457 c -0.354498,0.15039 -0.717942,0.26497 -1.090332,0.34375 -0.372401,0.0788 -0.750167,0.11816 -1.133301,0.11816 -0.959638,0 -1.720542,-0.2793 -2.282715,-0.83789 -0.558594,-0.55859 -0.837891,-1.31413 -0.83789,-2.2666 -10e-7,-0.9847 0.264973,-1.7653 0.794921,-2.3418 0.533527,-0.58007 1.251463,-0.87011 2.153809,-0.87012 0.80924,10e-6 1.4484,0.2614 1.91748,0.78418 0.472651,0.51921 0.708979,1.22641 0.708985,2.12159 m -0.988281,-0.29004 c -0.0072,-0.54069 -0.159348,-0.97217 -0.456543,-1.29444 -0.293625,-0.32226 -0.683924,-0.48339 -1.170899,-0.4834 -0.551435,10e-6 -0.993655,0.15577 -1.32666,0.46729 -0.329429,0.31153 -0.519207,0.75017 -0.569336,1.31592 l 3.523438,-0.005" />
        <path
           inkscape:connector-curvature="0"
           id="path3997"
           style="font-size:11px"
           d="m 23.274184,937.40088 0,3.63086 -0.988281,0 0,-3.59863 c -5e-6,-0.56934 -0.111007,-0.99544 -0.333008,-1.27832 -0.222009,-0.28288 -0.555017,-0.42432 -0.999023,-0.42432 -0.533532,0 -0.954267,0.17009 -1.262207,0.51025 -0.307945,0.34018 -0.461916,0.80388 -0.461914,1.39112 l 0,3.3999 -0.993652,0 0,-6.01563 0.993652,0 0,0.93457 c 0.236326,-0.36164 0.513832,-0.63199 0.832519,-0.81103 0.322263,-0.17903 0.692868,-0.26855 1.111817,-0.26856 0.691076,10e-6 1.213862,0.21485 1.568359,0.64453 0.354487,0.42612 0.531732,1.05453 0.531738,1.88526" />
        <path
           inkscape:connector-curvature="0"
           id="path3999"
           style="font-size:11px"
           d="m 26.233657,933.30811 0,1.708 2.035645,0 0,0.76807 -2.035645,0 0,3.26562 c -2e-6,0.49057 0.06624,0.80567 0.198731,0.94532 0.136065,0.13965 0.40999,0.20947 0.821777,0.20947 l 1.015137,0 0,0.82715 -1.015137,0 c -0.762698,0 -1.289064,-0.14144 -1.579102,-0.42432 -0.29004,-0.28646 -0.435059,-0.80566 -0.435058,-1.55762 l 0,-3.26562 -0.725098,0 0,-0.76807 0.725098,0 0,-1.708 0.993652,0" />
        <path
           inkscape:connector-curvature="0"
           id="path4001"
           style="font-size:11px"
           d="m 34.719985,937.77686 0,0.48339 -4.543945,0 c 0.04297,0.68034 0.247068,1.19955 0.612305,1.55762 0.368812,0.35449 0.880856,0.53174 1.536132,0.53174 0.379554,0 0.746578,-0.0466 1.101075,-0.13965 0.358067,-0.0931 0.712559,-0.23275 1.063476,-0.41894 l 0,0.93457 c -0.354498,0.15039 -0.717941,0.26497 -1.090332,0.34375 -0.3724,0.0788 -0.750167,0.11816 -1.133301,0.11816 -0.959638,0 -1.720542,-0.2793 -2.282714,-0.83789 -0.558595,-0.55859 -0.837892,-1.31413 -0.837891,-2.2666 -1e-6,-0.9847 0.264973,-1.7653 0.794922,-2.3418 0.533527,-0.58007 1.251462,-0.87011 2.153808,-0.87012 0.809241,10e-6 1.4484,0.2614 1.917481,0.78418 0.47265,0.51921 0.708978,1.22641 0.708984,2.12159 m -0.988281,-0.29004 c -0.0072,-0.54069 -0.159347,-0.97217 -0.456543,-1.29444 -0.293624,-0.32226 -0.683923,-0.48339 -1.170898,-0.4834 -0.551436,10e-6 -0.993655,0.15577 -1.326661,0.46729 -0.329429,0.31153 -0.519207,0.75017 -0.569336,1.31592 l 3.523438,-0.005" />
        <path
           inkscape:connector-curvature="0"
           id="path4003"
           style="font-size:11px"
           d="m 39.827895,935.93994 c -0.111007,-0.0644 -0.232751,-0.111 -0.365234,-0.13965 -0.12891,-0.0322 -0.272139,-0.0483 -0.429687,-0.0483 -0.558597,10e-6 -0.988284,0.18263 -1.289063,0.54785 -0.297203,0.36166 -0.445803,0.88266 -0.445801,1.56299 l 0,3.16895 -0.993652,0 0,-6.01563 0.993652,0 0,0.93457 c 0.20768,-0.36523 0.478025,-0.63557 0.811035,-0.81103 0.333005,-0.17903 0.737627,-0.26855 1.213868,-0.26856 0.06803,10e-6 0.143225,0.005 0.225586,0.0161 0.08235,0.007 0.17366,0.0197 0.273925,0.0376 l 0.0054,1.01514" />
        <path
           inkscape:connector-curvature="0"
           id="path4005"
           style="font-size:11px"
           d="m 45.505141,937.20215 0,2.93799 1.740235,0 c 0.583654,0 1.015132,-0.11996 1.294433,-0.35987 0.282873,-0.24348 0.424311,-0.61409 0.424317,-1.11181 -6e-6,-0.5013 -0.141444,-0.87012 -0.424317,-1.10645 -0.279301,-0.2399 -0.710779,-0.35986 -1.294433,-0.35986 l -1.740235,0 m 0,-3.29785 0,2.41699 1.605958,0 c 0.529943,0 0.923823,-0.0985 1.18164,-0.29541 0.261388,-0.20052 0.392085,-0.50488 0.39209,-0.91309 -5e-6,-0.40461 -0.130702,-0.70718 -0.39209,-0.90771 -0.257817,-0.20052 -0.651697,-0.30078 -1.18164,-0.30078 l -1.605958,0 m -1.08496,-0.8916 2.771484,0 c 0.827144,0 1.464513,0.17188 1.912109,0.51562 0.447585,0.34376 0.671381,0.83253 0.671387,1.46631 -6e-6,0.49056 -0.11459,0.88086 -0.34375,1.1709 -0.229173,0.29004 -0.565761,0.47087 -1.009766,0.54248 0.533523,0.11459 0.947097,0.35449 1.240723,0.71972 0.297194,0.36166 0.445794,0.81462 0.445801,1.35889 -7e-6,0.71615 -0.243496,1.26937 -0.730469,1.65967 -0.486985,0.3903 -1.179855,0.58545 -2.078613,0.58545 l -2.878906,0 0,-8.01904" />
      </g>
      <g
         transform="translate(0,8.8582196)"
         id="text3899"
         style="font-size:11px;font-style:normal;font-weight:normal;line-height:125%;letter-spacing:0px;word-spacing:0px;fill:#000000;fill-opacity:1;stroke:none;font-family:Sans">
        <path
           inkscape:connector-curvature="0"
           id="path3988"
           d="m 74.764122,937.20758 0,2.93799 1.740234,0 c 0.583655,0 1.015132,-0.11995 1.294434,-0.35986 0.282872,-0.24349 0.424311,-0.6141 0.424316,-1.11182 -5e-6,-0.5013 -0.141444,-0.87011 -0.424316,-1.10645 -0.279302,-0.2399 -0.710779,-0.35986 -1.294434,-0.35986 l -1.740234,0 m 0,-3.29785 0,2.41699 1.605957,0 c 0.529944,10e-6 0.923823,-0.0985 1.181641,-0.29541 0.261388,-0.20051 0.392084,-0.50488 0.39209,-0.91308 -6e-6,-0.40462 -0.130702,-0.70719 -0.39209,-0.90772 -0.257818,-0.20051 -0.651697,-0.30077 -1.181641,-0.30078 l -1.605957,0 m -1.084961,-0.8916 2.771484,0 c 0.827144,10e-6 1.464513,0.17188 1.91211,0.51562 0.447585,0.34376 0.67138,0.83253 0.671387,1.46631 -7e-6,0.49057 -0.11459,0.88087 -0.34375,1.1709 -0.229173,0.29004 -0.565761,0.47087 -1.009766,0.54248 0.533523,0.11459 0.947097,0.3545 1.240723,0.71973 0.297193,0.36165 0.445794,0.81462 0.4458,1.35888 -6e-6,0.71615 -0.243496,1.26937 -0.730468,1.65967 -0.486985,0.3903 -1.179856,0.58545 -2.078614,0.58545 l -2.878906,0 0,-8.01904" />
        <path
           inkscape:connector-curvature="0"
           id="path3990"
           d="m 81.504845,940.12408 1.772461,0 0,-6.11767 -1.928223,0.38672 0,-0.98828 1.91748,-0.38672 1.084961,0 0,7.10595 1.772461,0 0,0.91309 -4.61914,0 0,-0.91309" />
      </g>
      <g
         transform="translate(0,8.8582196)"
         id="text3903"
         style="font-size:11px;font-style:normal;font-weight:normal;line-height:125%;letter-spacing:0px;word-spacing:0px;fill:#ffffff;fill-opacity:1;stroke:none;font-family:Sans">
        <path
           inkscape:connector-curvature="0"
           id="path3983"
           d="m 130.05948,934.15936 -1.47168,3.99073 2.94873,0 -1.47705,-3.99073 m -0.61231,-1.06884 1.22998,0 3.05616,8.01904 -1.12793,0 -0.73047,-2.05713 -3.61475,0 -0.73047,2.05713 -1.14404,0 3.06152,-8.01904" />
        <path
           inkscape:connector-curvature="0"
           id="path3985"
           d="m 135.93008,940.19647 3.78663,0 0,0.91309 -5.0918,0 0,-0.91309 c 0.41178,-0.4261 0.97216,-0.99723 1.68115,-1.71338 0.71256,-0.71972 1.16015,-1.18342 1.34277,-1.39111 0.34733,-0.3903 0.58903,-0.71972 0.7251,-0.98828 0.13965,-0.27213 0.20947,-0.5389 0.20947,-0.80029 0,-0.4261 -0.15039,-0.77344 -0.45117,-1.042 -0.2972,-0.26854 -0.68571,-0.40282 -1.16552,-0.40283 -0.34018,1e-5 -0.70004,0.0591 -1.07959,0.17725 -0.37598,0.11817 -0.77881,0.2972 -1.2085,0.53711 l 0,-1.09571 c 0.43685,-0.17544 0.84505,-0.30793 1.22461,-0.39746 0.37955,-0.0895 0.72688,-0.13427 1.04199,-0.13427 0.83073,0 1.49316,0.20769 1.98731,0.62304 0.49413,0.41537 0.7412,0.97039 0.74121,1.66504 -1e-5,0.32943 -0.0627,0.64275 -0.18799,0.93994 -0.12175,0.29363 -0.34555,0.64096 -0.67139,1.042 -0.0895,0.10384 -0.37419,0.40462 -0.854,0.90234 -0.47982,0.49414 -1.15658,1.18701 -2.03028,2.07861" />
      </g>
      <g
         transform="translate(0,8.8582196)"
         id="text3907"
         style="font-size:11px;font-style:normal;font-weight:normal;line-height:125%;letter-spacing:0px;word-spacing:0px;fill:#000000;fill-opacity:1;stroke:none;font-family:Sans">
        <path
           inkscape:connector-curvature="0"
           id="path3978"
           d="m 183.16612,934.08698 -1.47168,3.99072 2.94873,0 -1.47705,-3.99072 m -0.6123,-1.06885 1.22998,0 3.05615,8.01904 -1.12793,0 -0.73047,-2.05713 -3.61474,0 -0.73047,2.05713 -1.14405,0 3.06153,-8.01904" />
        <path
           inkscape:connector-curvature="0"
           id="path3980"
           d="m 188.29015,940.12408 1.77246,0 0,-6.11767 -1.92823,0.38672 0,-0.98828 1.91748,-0.38672 1.08497,0 0,7.10595 1.77246,0 0,0.91309 -4.61914,0 0,-0.91309" />
      </g>
      <g
         transform="translate(0,8.8582196)"
         id="text3911"
         style="font-size:11px;font-style:normal;font-weight:normal;line-height:125%;letter-spacing:0px;word-spacing:0px;fill:#ffffff;fill-opacity:1;stroke:none;font-family:Sans">
        <path
           inkscape:connector-curvature="0"
           id="path3973"
           d="m 234.25591,937.27997 0,2.93799 1.74023,0 c 0.58365,0 1.01513,-0.11996 1.29443,-0.35987 0.28288,-0.24348 0.42431,-0.61409 0.42432,-1.11181 -1e-5,-0.5013 -0.14144,-0.87012 -0.42432,-1.10645 -0.2793,-0.2399 -0.71078,-0.35986 -1.29443,-0.35986 l -1.74023,0 m 0,-3.29785 0,2.41699 1.60595,0 c 0.52995,0 0.92383,-0.0985 1.18164,-0.29541 0.26139,-0.20052 0.39209,-0.50488 0.39209,-0.91309 0,-0.40461 -0.1307,-0.70718 -0.39209,-0.90771 -0.25781,-0.20052 -0.65169,-0.30078 -1.18164,-0.30078 l -1.60595,0 m -1.08497,-0.8916 2.77149,0 c 0.82714,0 1.46451,0.17188 1.91211,0.51562 0.44758,0.34376 0.67138,0.83253 0.67138,1.46631 0,0.49056 -0.11458,0.88086 -0.34375,1.1709 -0.22917,0.29004 -0.56576,0.47087 -1.00976,0.54248 0.53352,0.11459 0.9471,0.35449 1.24072,0.71972 0.2972,0.36166 0.4458,0.81462 0.4458,1.35889 0,0.71615 -0.24349,1.26937 -0.73047,1.65967 -0.48698,0.3903 -1.17985,0.58545 -2.07861,0.58545 l -2.87891,0 0,-8.01904" />
        <path
           inkscape:connector-curvature="0"
           id="path3975"
           d="m 241.74321,940.19647 3.78662,0 0,0.91309 -5.0918,0 0,-0.91309 c 0.41179,-0.4261 0.97217,-0.99723 1.68116,-1.71338 0.71256,-0.71972 1.16015,-1.18342 1.34277,-1.39111 0.34733,-0.3903 0.58903,-0.71972 0.7251,-0.98828 0.13964,-0.27213 0.20947,-0.5389 0.20947,-0.80029 0,-0.4261 -0.1504,-0.77344 -0.45117,-1.042 -0.29721,-0.26854 -0.68571,-0.40282 -1.16553,-0.40283 -0.34017,1e-5 -0.70003,0.0591 -1.07959,0.17725 -0.37598,0.11817 -0.77881,0.2972 -1.2085,0.53711 l 0,-1.09571 c 0.43685,-0.17544 0.84506,-0.30793 1.22461,-0.39746 0.37956,-0.0895 0.72689,-0.13427 1.042,-0.13427 0.83072,0 1.49316,0.20769 1.9873,0.62304 0.49414,0.41537 0.74121,0.97039 0.74121,1.66504 0,0.32943 -0.0627,0.64275 -0.18799,0.93994 -0.12175,0.29363 -0.34554,0.64096 -0.67138,1.042 -0.0895,0.10384 -0.37419,0.40462 -0.85401,0.90234 -0.47982,0.49414 -1.15658,1.18701 -2.03027,2.07861" />
      </g>
      <g
         transform="translate(0,8.8582196)"
         id="text3915"
         style="font-size:11px;font-style:normal;font-weight:normal;line-height:125%;letter-spacing:0px;word-spacing:0px;fill:#000000;fill-opacity:1;stroke:none;font-family:Sans">
        <path
           inkscape:connector-curvature="0"
           id="path3958"
           d="m 9.5295556,986.77997 0,1.14404 c -0.3652411,-0.34016 -0.7555402,-0.59439 -1.1708985,-0.76269 -0.4117893,-0.16829 -0.8504282,-0.25244 -1.3159179,-0.25245 -0.9166704,10e-6 -1.6184926,0.2811 -2.1054688,0.84327 -0.4869812,0.5586 -0.7304705,1.36784 -0.7304687,2.42773 -1.8e-6,1.05632 0.2434875,1.86556 0.7304687,2.42773 0.4869762,0.5586 1.1887984,0.8379 2.1054688,0.8379 0.4654897,0 0.9041286,-0.0842 1.3159179,-0.25245 0.4153583,-0.16829 0.8056574,-0.42252 1.1708985,-0.76269 l 0,1.1333 c -0.379564,0.25781 -0.7823957,0.45117 -1.2084961,0.58008 -0.4225315,0.1289 -0.8701222,0.19336 -1.3427735,0.19336 -1.2138705,0 -2.1699242,-0.37061 -2.868164,-1.11182 -0.6982432,-0.74479 -1.0473639,-1.75992 -1.0473633,-3.04541 -6e-7,-1.28906 0.3491201,-2.30419 1.0473633,-3.04541 0.6982398,-0.74478 1.6542935,-1.11718 2.868164,-1.11719 0.4798127,10e-6 0.9309841,0.0645 1.3535157,0.19336 0.4261004,0.12534 0.8253513,0.31511 1.1977539,0.56934" />
        <path
           inkscape:connector-curvature="0"
           id="path3960"
           d="m 16.318618,990.92645 0,0.4834 -4.543945,0 c 0.04297,0.68034 0.247068,1.19955 0.612304,1.55762 0.368813,0.35449 0.880857,0.53174 1.536133,0.53174 0.379553,0 0.746578,-0.0465 1.101074,-0.13965 0.358068,-0.0931 0.71256,-0.23275 1.063477,-0.41895 l 0,0.93457 c -0.354498,0.15039 -0.717941,0.26498 -1.090332,0.34375 -0.3724,0.0788 -0.750167,0.11817 -1.133301,0.11817 -0.959638,0 -1.720542,-0.2793 -2.282715,-0.83789 -0.558594,-0.5586 -0.837891,-1.31413 -0.83789,-2.26661 -10e-7,-0.98469 0.264973,-1.76529 0.794922,-2.34179 0.533526,-0.58007 1.251462,-0.87011 2.153808,-0.87012 0.809241,1e-5 1.4484,0.2614 1.917481,0.78418 0.47265,0.51921 0.708978,1.2264 0.708984,2.12158 m -0.988281,-0.29004 c -0.0072,-0.54068 -0.159348,-0.97216 -0.456543,-1.29443 -0.293624,-0.32226 -0.683923,-0.48339 -1.170899,-0.4834 -0.551435,1e-5 -0.993655,0.15577 -1.32666,0.46729 -0.329429,0.31152 -0.519207,0.75016 -0.569336,1.31591 l 3.523438,-0.005" />
        <path
           inkscape:connector-curvature="0"
           id="path3962"
           d="m 22.941177,990.55048 0,3.63086 -0.988282,0 0,-3.59864 c -5e-6,-0.56933 -0.111007,-0.99544 -0.333007,-1.27832 -0.22201,-0.28287 -0.555018,-0.42431 -0.999024,-0.42431 -0.533532,0 -0.954267,0.17009 -1.262207,0.51025 -0.307945,0.34017 -0.461916,0.80388 -0.461914,1.39111 l 0,3.39991 -0.993652,0 0,-6.01563 0.993652,0 0,0.93457 c 0.236326,-0.36165 0.513832,-0.63199 0.83252,-0.81103 0.322262,-0.17903 0.692867,-0.26855 1.111816,-0.26856 0.691076,1e-5 1.213862,0.21485 1.568359,0.64453 0.354487,0.42611 0.531733,1.05453 0.531739,1.88526" />
        <path
           inkscape:connector-curvature="0"
           id="path3964"
           d="m 25.900649,986.4577 0,1.70801 2.035645,0 0,0.76807 -2.035645,0 0,3.26562 c -2e-6,0.49056 0.06624,0.80567 0.198731,0.94531 0.136065,0.13965 0.409991,0.20948 0.821777,0.20948 l 1.015137,0 0,0.82715 -1.015137,0 c -0.762697,0 -1.289064,-0.14144 -1.579101,-0.42432 -0.290041,-0.28646 -0.43506,-0.80566 -0.435059,-1.55762 l 0,-3.26562 -0.725098,0 0,-0.76807 0.725098,0 0,-1.70801 0.993652,0" />
        <path
           inkscape:connector-curvature="0"
           id="path3966"
           d="m 34.386977,990.92645 0,0.4834 -4.543945,0 c 0.04297,0.68034 0.247069,1.19955 0.612305,1.55762 0.368812,0.35449 0.880856,0.53174 1.536133,0.53174 0.379553,0 0.746577,-0.0465 1.101074,-0.13965 0.358068,-0.0931 0.712559,-0.23275 1.063476,-0.41895 l 0,0.93457 c -0.354497,0.15039 -0.717941,0.26498 -1.090332,0.34375 -0.3724,0.0788 -0.750166,0.11817 -1.1333,0.11817 -0.959639,0 -1.720543,-0.2793 -2.282715,-0.83789 -0.558595,-0.5586 -0.837891,-1.31413 -0.837891,-2.26661 0,-0.98469 0.264973,-1.76529 0.794922,-2.34179 0.533527,-0.58007 1.251462,-0.87011 2.153809,-0.87012 0.80924,1e-5 1.4484,0.2614 1.91748,0.78418 0.47265,0.51921 0.708978,1.2264 0.708984,2.12158 m -0.988281,-0.29004 c -0.0072,-0.54068 -0.159347,-0.97216 -0.456543,-1.29443 -0.293624,-0.32226 -0.683923,-0.48339 -1.170898,-0.4834 -0.551436,1e-5 -0.993655,0.15577 -1.32666,0.46729 -0.329429,0.31152 -0.519208,0.75016 -0.569336,1.31591 l 3.523437,-0.005" />
        <path
           inkscape:connector-curvature="0"
           id="path3968"
           d="m 39.494888,989.08954 c -0.111007,-0.0645 -0.232752,-0.111 -0.365235,-0.13965 -0.12891,-0.0322 -0.272139,-0.0483 -0.429687,-0.0483 -0.558597,10e-6 -0.988284,0.18262 -1.289063,0.54785 -0.297202,0.36166 -0.445803,0.88266 -0.445801,1.56299 l 0,3.16895 -0.993652,0 0,-6.01563 0.993652,0 0,0.93457 c 0.207681,-0.36523 0.478025,-0.63557 0.811036,-0.81103 0.333004,-0.17903 0.737626,-0.26855 1.213867,-0.26856 0.06803,1e-5 0.143225,0.005 0.225586,0.0161 0.08235,0.007 0.173661,0.0197 0.273925,0.0376 l 0.0054,1.01514" />
        <path
           inkscape:connector-curvature="0"
           id="path3970"
           d="m 46.767349,987.23114 -1.47168,3.99072 2.94873,0 -1.47705,-3.99072 m -0.612305,-1.06885 1.22998,0 3.056153,8.01905 -1.12793,0 -0.730469,-2.05713 -3.614746,0 -0.730469,2.05713 -1.144043,0 3.061524,-8.01905" />
      </g>
      <g
         transform="translate(0,8.8582196)"
         id="text3919"
         style="font-size:11px;font-style:normal;font-weight:normal;line-height:125%;letter-spacing:0px;word-spacing:0px;fill:#000000;fill-opacity:1;stroke:none;font-family:Sans">
        <path
           inkscape:connector-curvature="0"
           id="path3953"
           d="m 72.784874,986.16229 1.460937,0 3.555665,6.7085 0,-6.7085 1.052734,0 0,8.01905 -1.460938,0 -3.555664,-6.7085 0,6.7085 -1.052734,0 0,-8.01905" />
        <path
           inkscape:connector-curvature="0"
           id="path3955"
           d="m 87.018272,986.77997 0,1.14404 c -0.365241,-0.34016 -0.75554,-0.59439 -1.170898,-0.76269 -0.411789,-0.16829 -0.850428,-0.25244 -1.315918,-0.25245 -0.91667,10e-6 -1.618493,0.2811 -2.105469,0.84327 -0.486981,0.5586 -0.73047,1.36784 -0.730469,2.42773 -1e-6,1.05632 0.243488,1.86556 0.730469,2.42773 0.486976,0.5586 1.188799,0.8379 2.105469,0.8379 0.46549,0 0.904129,-0.0842 1.315918,-0.25245 0.415358,-0.16829 0.805657,-0.42252 1.170898,-0.76269 l 0,1.1333 c -0.379564,0.25781 -0.782395,0.45117 -1.208496,0.58008 -0.422531,0.1289 -0.870122,0.19336 -1.342773,0.19336 -1.213871,0 -2.169924,-0.37061 -2.868164,-1.11182 -0.698243,-0.74479 -1.047364,-1.75992 -1.047363,-3.04541 -10e-7,-1.28906 0.34912,-2.30419 1.047363,-3.04541 0.69824,-0.74478 1.654293,-1.11718 2.868164,-1.11719 0.479813,10e-6 0.930984,0.0645 1.353515,0.19336 0.426101,0.12534 0.825352,0.31511 1.197754,0.56934" />
      </g>
      <g
         transform="translate(0,8.8582196)"
         id="text3923"
         style="font-size:11px;font-style:normal;font-weight:normal;line-height:125%;letter-spacing:0px;word-spacing:0px;fill:#000000;fill-opacity:1;stroke:none;font-family:Sans">
        <path
           inkscape:connector-curvature="0"
           id="path3948"
           d="m 125.93448,986.16229 1.46094,0 3.55566,6.7085 0,-6.7085 1.05273,0 0,8.01905 -1.46093,0 -3.55567,-6.7085 0,6.7085 -1.05273,0 0,-8.01905" />
        <path
           inkscape:connector-curvature="0"
           id="path3950"
           d="m 140.16788,986.77997 0,1.14404 c -0.36524,-0.34016 -0.75554,-0.59439 -1.1709,-0.76269 -0.41179,-0.16829 -0.85043,-0.25244 -1.31592,-0.25245 -0.91667,10e-6 -1.61849,0.2811 -2.10547,0.84327 -0.48698,0.5586 -0.73047,1.36784 -0.73047,2.42773 0,1.05632 0.24349,1.86556 0.73047,2.42773 0.48698,0.5586 1.1888,0.8379 2.10547,0.8379 0.46549,0 0.90413,-0.0842 1.31592,-0.25245 0.41536,-0.16829 0.80566,-0.42252 1.1709,-0.76269 l 0,1.1333 c -0.37957,0.25781 -0.7824,0.45117 -1.2085,0.58008 -0.42253,0.1289 -0.87012,0.19336 -1.34277,0.19336 -1.21387,0 -2.16993,-0.37061 -2.86817,-1.11182 -0.69824,-0.74479 -1.04736,-1.75992 -1.04736,-3.04541 0,-1.28906 0.34912,-2.30419 1.04736,-3.04541 0.69824,-0.74478 1.6543,-1.11718 2.86817,-1.11719 0.47981,10e-6 0.93098,0.0645 1.35351,0.19336 0.4261,0.12534 0.82535,0.31511 1.19776,0.56934" />
      </g>
      <g
         transform="translate(0,8.8582196)"
         id="text3927"
         style="font-size:11px;font-style:normal;font-weight:normal;line-height:125%;letter-spacing:0px;word-spacing:0px;fill:#000000;fill-opacity:1;stroke:none;font-family:Sans">
        <path
           inkscape:connector-curvature="0"
           id="path3943"
           d="m 179.08409,986.16229 1.46094,0 3.55566,6.7085 0,-6.7085 1.05274,0 0,8.01905 -1.46094,0 -3.55566,-6.7085 0,6.7085 -1.05274,0 0,-8.01905" />
        <path
           inkscape:connector-curvature="0"
           id="path3945"
           d="m 193.31749,986.77997 0,1.14404 c -0.36524,-0.34016 -0.75554,-0.59439 -1.1709,-0.76269 -0.41179,-0.16829 -0.85043,-0.25244 -1.31592,-0.25245 -0.91667,10e-6 -1.61849,0.2811 -2.10547,0.84327 -0.48698,0.5586 -0.73047,1.36784 -0.73046,2.42773 -1e-5,1.05632 0.24348,1.86556 0.73046,2.42773 0.48698,0.5586 1.1888,0.8379 2.10547,0.8379 0.46549,0 0.90413,-0.0842 1.31592,-0.25245 0.41536,-0.16829 0.80566,-0.42252 1.1709,-0.76269 l 0,1.1333 c -0.37956,0.25781 -0.7824,0.45117 -1.2085,0.58008 -0.42253,0.1289 -0.87012,0.19336 -1.34277,0.19336 -1.21387,0 -2.16992,-0.37061 -2.86816,-1.11182 -0.69825,-0.74479 -1.04737,-1.75992 -1.04737,-3.04541 0,-1.28906 0.34912,-2.30419 1.04737,-3.04541 0.69824,-0.74478 1.65429,-1.11718 2.86816,-1.11719 0.47981,10e-6 0.93098,0.0645 1.35352,0.19336 0.4261,0.12534 0.82535,0.31511 1.19775,0.56934" />
      </g>
      <g
         transform="translate(0,8.8582196)"
         id="text3931"
         style="font-size:11px;font-style:normal;font-weight:normal;line-height:125%;letter-spacing:0px;word-spacing:0px;fill:#000000;fill-opacity:1;stroke:none;font-family:Sans">
        <path
           inkscape:connector-curvature="0"
           id="path3936"
           d="m 230.07451,985.02362 1.08496,0 0,3.38916 3.59863,-3.38916 1.39649,0 -3.97998,3.73828 4.26464,4.28076 -1.42871,0 -3.85107,-3.86181 0,3.86181 -1.08496,0 0,-8.01904" />
        <path
           inkscape:connector-curvature="0"
           id="path3938"
           d="m 241.85869,989.78778 0,0.4834 -4.54395,0 c 0.043,0.68034 0.24707,1.19955 0.61231,1.55762 0.36881,0.35449 0.88085,0.53174 1.53613,0.53173 0.37955,10e-6 0.74658,-0.0465 1.10107,-0.13964 0.35807,-0.0931 0.71256,-0.23275 1.06348,-0.41895 l 0,0.93457 c -0.3545,0.15039 -0.71794,0.26498 -1.09033,0.34375 -0.3724,0.0788 -0.75017,0.11817 -1.1333,0.11817 -0.95964,0 -1.72054,-0.2793 -2.28272,-0.8379 -0.55859,-0.55859 -0.83789,-1.31412 -0.83789,-2.2666 0,-0.98469 0.26498,-1.76529 0.79492,-2.34179 0.53353,-0.58008 1.25147,-0.87011 2.15381,-0.87012 0.80924,10e-6 1.4484,0.2614 1.91748,0.78418 0.47265,0.51921 0.70898,1.2264 0.70899,2.12158 m -0.98828,-0.29004 c -0.007,-0.54068 -0.15935,-0.97216 -0.45655,-1.29443 -0.29362,-0.32226 -0.68392,-0.4834 -1.17089,-0.4834 -0.55144,0 -0.99366,0.15577 -1.32666,0.46728 -0.32943,0.31153 -0.51921,0.75017 -0.56934,1.31592 l 3.52344,-0.005" />
        <path
           inkscape:connector-curvature="0"
           id="path3940"
           d="m 245.98369,993.60126 c -0.2793,0.71614 -0.55144,1.18343 -0.81641,1.40185 -0.26497,0.21843 -0.61947,0.32764 -1.06347,0.32764 l -0.78956,0 0,-0.82715 0.58008,0 c 0.27214,0 0.4834,-0.0644 0.63379,-0.19336 0.15039,-0.12891 0.31689,-0.43327 0.49951,-0.91308 l 0.17725,-0.45118 -2.43311,-5.91894 1.04737,0 1.87988,4.70508 1.87988,-4.70508 1.04737,0 -2.64258,6.57422" />
      </g>
    </g>
  </g>
</svg>
